<mxfile host="Electron" agent="Mozilla/5.0 (Windows NT 10.0; Win64; x64) AppleWebKit/537.36 (KHTML, like Gecko) draw.io/28.0.6 Chrome/138.0.7204.100 Electron/37.2.3 Safari/537.36" version="28.0.6">
  <diagram name="Page-1" id="2YBvvXClWsGukQMizWep">
    <mxGraphModel dx="1426" dy="841" grid="1" gridSize="10" guides="1" tooltips="1" connect="1" arrows="1" fold="1" page="1" pageScale="1" pageWidth="850" pageHeight="1100" math="0" shadow="0">
      <root>
        <mxCell id="0" />
        <mxCell id="1" parent="0" />
        <mxCell id="sMox23PNVhgFKlWhc7-W-1" value="" style="endArrow=open;html=1;rounded=0;align=center;verticalAlign=top;endFill=0;labelBackgroundColor=none;endSize=6;startArrow=oval;startFill=1;" parent="1" edge="1">
          <mxGeometry relative="1" as="geometry">
            <mxPoint x="120" y="190" as="sourcePoint" />
            <mxPoint x="320" y="190" as="targetPoint" />
          </mxGeometry>
        </mxCell>
        <mxCell id="sMox23PNVhgFKlWhc7-W-2" value="Dibujar poligono o radio en el mapa" style="edgeLabel;html=1;align=center;verticalAlign=middle;resizable=0;points=[];" parent="sMox23PNVhgFKlWhc7-W-1" vertex="1" connectable="0">
          <mxGeometry x="-0.03" y="-2" relative="1" as="geometry">
            <mxPoint y="-17" as="offset" />
          </mxGeometry>
        </mxCell>
        <mxCell id="sMox23PNVhgFKlWhc7-W-3" value="" style="endArrow=open;html=1;rounded=0;align=center;verticalAlign=top;endFill=0;labelBackgroundColor=none;endSize=6;startArrow=oval;startFill=1;" parent="1" edge="1">
          <mxGeometry relative="1" as="geometry">
            <mxPoint x="320" y="216" as="sourcePoint" />
            <mxPoint x="520" y="216" as="targetPoint" />
          </mxGeometry>
        </mxCell>
        <mxCell id="sMox23PNVhgFKlWhc7-W-4" value="definirArea(coordenadas)" style="edgeLabel;html=1;align=center;verticalAlign=middle;resizable=0;points=[];" parent="sMox23PNVhgFKlWhc7-W-3" vertex="1" connectable="0">
          <mxGeometry x="-0.03" y="-2" relative="1" as="geometry">
            <mxPoint y="-17" as="offset" />
          </mxGeometry>
        </mxCell>
        <mxCell id="sMox23PNVhgFKlWhc7-W-5" value="" style="html=1;points=[[0,0,0,0,5],[0,1,0,0,-5],[1,0,0,0,5],[1,1,0,0,-5]];perimeter=orthogonalPerimeter;outlineConnect=0;targetShapes=umlLifeline;portConstraint=eastwest;newEdgeStyle={&quot;curved&quot;:0,&quot;rounded&quot;:0};" parent="1" vertex="1">
          <mxGeometry x="515" y="190" width="10" height="140" as="geometry" />
        </mxCell>
        <mxCell id="sMox23PNVhgFKlWhc7-W-6" value="validarCoord(&lt;span style=&quot;text-align: center;&quot;&gt;coordenadas&lt;/span&gt;)" style="html=1;align=left;spacingLeft=2;endArrow=block;rounded=0;edgeStyle=orthogonalEdgeStyle;curved=0;rounded=0;" parent="1" edge="1">
          <mxGeometry relative="1" as="geometry">
            <mxPoint x="525" y="200" as="sourcePoint" />
            <Array as="points">
              <mxPoint x="555" y="230" />
            </Array>
            <mxPoint x="530" y="230" as="targetPoint" />
          </mxGeometry>
        </mxCell>
        <mxCell id="sMox23PNVhgFKlWhc7-W-7" value="" style="endArrow=open;html=1;rounded=0;align=center;verticalAlign=top;endFill=0;labelBackgroundColor=none;endSize=6;startArrow=oval;startFill=1;" parent="1" edge="1">
          <mxGeometry relative="1" as="geometry">
            <mxPoint x="525" y="260" as="sourcePoint" />
            <mxPoint x="720" y="260" as="targetPoint" />
          </mxGeometry>
        </mxCell>
        <mxCell id="sMox23PNVhgFKlWhc7-W-8" value="guardarAreadeInteres(coordenadas)" style="edgeLabel;html=1;align=center;verticalAlign=middle;resizable=0;points=[];" parent="sMox23PNVhgFKlWhc7-W-7" vertex="1" connectable="0">
          <mxGeometry x="-0.03" y="-2" relative="1" as="geometry">
            <mxPoint y="-17" as="offset" />
          </mxGeometry>
        </mxCell>
        <mxCell id="sMox23PNVhgFKlWhc7-W-9" value="" style="html=1;points=[[0,0,0,0,5],[0,1,0,0,-5],[1,0,0,0,5],[1,1,0,0,-5]];perimeter=orthogonalPerimeter;outlineConnect=0;targetShapes=umlLifeline;portConstraint=eastwest;newEdgeStyle={&quot;curved&quot;:0,&quot;rounded&quot;:0};" parent="1" vertex="1">
          <mxGeometry x="714" y="264" width="10" height="40" as="geometry" />
        </mxCell>
        <mxCell id="sMox23PNVhgFKlWhc7-W-10" value="" style="endArrow=oval;html=1;rounded=0;align=center;verticalAlign=top;endFill=1;labelBackgroundColor=none;endSize=6;startArrow=block;startFill=1;strokeColor=default;dashed=1;" parent="1" source="sMox23PNVhgFKlWhc7-W-5" edge="1">
          <mxGeometry relative="1" as="geometry">
            <mxPoint x="530" y="310" as="sourcePoint" />
            <mxPoint x="720" y="310" as="targetPoint" />
          </mxGeometry>
        </mxCell>
        <mxCell id="sMox23PNVhgFKlWhc7-W-11" value="true" style="edgeLabel;html=1;align=center;verticalAlign=middle;resizable=0;points=[];" parent="sMox23PNVhgFKlWhc7-W-10" vertex="1" connectable="0">
          <mxGeometry x="-0.03" y="-2" relative="1" as="geometry">
            <mxPoint y="-17" as="offset" />
          </mxGeometry>
        </mxCell>
        <mxCell id="sMox23PNVhgFKlWhc7-W-12" value="" style="endArrow=oval;html=1;rounded=0;align=center;verticalAlign=top;endFill=1;labelBackgroundColor=none;endSize=6;startArrow=block;startFill=1;dashed=1;" parent="1" edge="1">
          <mxGeometry relative="1" as="geometry">
            <mxPoint x="320" y="340" as="sourcePoint" />
            <mxPoint x="520" y="340" as="targetPoint" />
          </mxGeometry>
        </mxCell>
        <mxCell id="sMox23PNVhgFKlWhc7-W-13" value="true" style="edgeLabel;html=1;align=center;verticalAlign=middle;resizable=0;points=[];" parent="sMox23PNVhgFKlWhc7-W-12" vertex="1" connectable="0">
          <mxGeometry x="-0.03" y="-2" relative="1" as="geometry">
            <mxPoint y="-17" as="offset" />
          </mxGeometry>
        </mxCell>
        <mxCell id="sMox23PNVhgFKlWhc7-W-14" value="" style="endArrow=oval;html=1;rounded=0;align=center;verticalAlign=top;endFill=1;labelBackgroundColor=none;endSize=6;startArrow=block;startFill=1;dashed=1;" parent="1" edge="1">
          <mxGeometry relative="1" as="geometry">
            <mxPoint x="120" y="390" as="sourcePoint" />
            <mxPoint x="320" y="390" as="targetPoint" />
          </mxGeometry>
        </mxCell>
        <mxCell id="sMox23PNVhgFKlWhc7-W-15" value="Muestra mensaje &quot;Area guardadad&quot;" style="edgeLabel;html=1;align=center;verticalAlign=middle;resizable=0;points=[];" parent="sMox23PNVhgFKlWhc7-W-14" vertex="1" connectable="0">
          <mxGeometry x="-0.03" y="-2" relative="1" as="geometry">
            <mxPoint y="-17" as="offset" />
          </mxGeometry>
        </mxCell>
        <mxCell id="sMox23PNVhgFKlWhc7-W-16" value="CU-04" style="text;html=1;align=center;verticalAlign=middle;resizable=0;points=[];autosize=1;strokeColor=none;fillColor=none;fontStyle=1" parent="1" vertex="1">
          <mxGeometry x="10" y="234" width="60" height="30" as="geometry" />
        </mxCell>
        <mxCell id="sMox23PNVhgFKlWhc7-W-17" value="Actor" style="shape=umlActor;verticalLabelPosition=bottom;verticalAlign=top;html=1;" parent="1" vertex="1">
          <mxGeometry x="102" y="429" width="30" height="60" as="geometry" />
        </mxCell>
        <mxCell id="sMox23PNVhgFKlWhc7-W-18" value="Actor" style="shape=umlActor;verticalLabelPosition=bottom;verticalAlign=top;html=1;" parent="1" vertex="1">
          <mxGeometry x="105" y="80" width="30" height="60" as="geometry" />
        </mxCell>
        <mxCell id="sMox23PNVhgFKlWhc7-W-19" value="Interfaz de&lt;div&gt;Usuario&lt;/div&gt;" style="shape=umlBoundary;whiteSpace=wrap;html=1;" parent="1" vertex="1">
          <mxGeometry x="265" y="80" width="95" height="70" as="geometry" />
        </mxCell>
        <mxCell id="sMox23PNVhgFKlWhc7-W-20" value="Aplicacion&lt;div&gt;SATE&lt;/div&gt;" style="ellipse;shape=umlControl;whiteSpace=wrap;html=1;" parent="1" vertex="1">
          <mxGeometry x="490" y="70" width="70" height="80" as="geometry" />
        </mxCell>
        <mxCell id="sMox23PNVhgFKlWhc7-W-21" value="Base de Datos" style="ellipse;shape=umlEntity;whiteSpace=wrap;html=1;" parent="1" vertex="1">
          <mxGeometry x="684" y="80" width="70" height="70" as="geometry" />
        </mxCell>
        <mxCell id="sMox23PNVhgFKlWhc7-W-24" value="" style="endArrow=none;dashed=1;html=1;dashPattern=1 3;strokeWidth=2;rounded=0;" parent="1" edge="1">
          <mxGeometry width="50" height="50" relative="1" as="geometry">
            <mxPoint x="116" y="420" as="sourcePoint" />
            <mxPoint x="116" y="180" as="targetPoint" />
          </mxGeometry>
        </mxCell>
        <mxCell id="sMox23PNVhgFKlWhc7-W-25" value="" style="endArrow=none;dashed=1;html=1;dashPattern=1 3;strokeWidth=2;rounded=0;" parent="1" edge="1">
          <mxGeometry width="50" height="50" relative="1" as="geometry">
            <mxPoint x="320" y="420" as="sourcePoint" />
            <mxPoint x="320" y="190" as="targetPoint" />
          </mxGeometry>
        </mxCell>
        <mxCell id="sMox23PNVhgFKlWhc7-W-28" value="" style="endArrow=none;dashed=1;html=1;dashPattern=1 3;strokeWidth=2;rounded=0;exitX=0.543;exitY=0.013;exitDx=0;exitDy=0;exitPerimeter=0;" parent="1" source="sMox23PNVhgFKlWhc7-W-42" edge="1">
          <mxGeometry width="50" height="50" relative="1" as="geometry">
            <mxPoint x="520" y="430" as="sourcePoint" />
            <mxPoint x="520" y="180" as="targetPoint" />
          </mxGeometry>
        </mxCell>
        <mxCell id="sMox23PNVhgFKlWhc7-W-33" value="" style="endArrow=none;dashed=1;html=1;dashPattern=1 3;strokeWidth=2;rounded=0;" parent="1" edge="1">
          <mxGeometry width="50" height="50" relative="1" as="geometry">
            <mxPoint x="720" y="260" as="sourcePoint" />
            <mxPoint x="720" y="180" as="targetPoint" />
          </mxGeometry>
        </mxCell>
        <mxCell id="sMox23PNVhgFKlWhc7-W-34" value="" style="endArrow=none;dashed=1;html=1;dashPattern=1 3;strokeWidth=2;rounded=0;" parent="1" edge="1">
          <mxGeometry width="50" height="50" relative="1" as="geometry">
            <mxPoint x="722" y="420" as="sourcePoint" />
            <mxPoint x="722" y="300" as="targetPoint" />
          </mxGeometry>
        </mxCell>
        <mxCell id="sMox23PNVhgFKlWhc7-W-41" value="Interfaz de&lt;div&gt;Usuario&lt;/div&gt;" style="shape=umlBoundary;whiteSpace=wrap;html=1;" parent="1" vertex="1">
          <mxGeometry x="258" y="429" width="95" height="70" as="geometry" />
        </mxCell>
        <mxCell id="sMox23PNVhgFKlWhc7-W-42" value="Aplicacion&lt;div&gt;SATE&lt;/div&gt;" style="ellipse;shape=umlControl;whiteSpace=wrap;html=1;" parent="1" vertex="1">
          <mxGeometry x="483" y="419" width="70" height="80" as="geometry" />
        </mxCell>
        <mxCell id="sMox23PNVhgFKlWhc7-W-43" value="Base de Datos" style="ellipse;shape=umlEntity;whiteSpace=wrap;html=1;" parent="1" vertex="1">
          <mxGeometry x="677" y="429" width="70" height="70" as="geometry" />
        </mxCell>
        <mxCell id="sMox23PNVhgFKlWhc7-W-44" value="&lt;font face=&quot;Helvetica&quot; style=&quot;color: rgb(0, 0, 0);&quot;&gt;&lt;b&gt;Diagrama de secuencia del caso de uso&amp;nbsp;&lt;span id=&quot;docs-internal-guid-b422ce34-7fff-3a20-f10a-16ee452fa776&quot; style=&quot;background-color: transparent; font-variant-numeric: normal; font-variant-east-asian: normal; font-variant-alternates: normal; font-variant-position: normal; font-variant-emoji: normal; vertical-align: baseline; white-space-collapse: preserve;&quot;&gt;Definir Área de Interés&lt;/span&gt;&lt;/b&gt;&lt;/font&gt;" style="text;html=1;align=center;verticalAlign=middle;whiteSpace=wrap;rounded=0;fontSize=18;" parent="1" vertex="1">
          <mxGeometry x="90" y="16" width="650" height="30" as="geometry" />
        </mxCell>
      </root>
    </mxGraphModel>
  </diagram>
</mxfile>
